<?xml version="1.0" standalone="no"?>
<!DOCTYPE svg PUBLIC "-//W3C//DTD SVG 20010904//EN"
 "http://www.w3.org/TR/2001/REC-SVG-20010904/DTD/svg10.dtd">
<svg version="1.0" xmlns="http://www.w3.org/2000/svg"
 width="1024.000000pt" height="1024.000000pt" viewBox="0 0 1024.000000 1024.000000"
 preserveAspectRatio="xMidYMid meet">
<metadata>
Created by potrace 1.14, written by Peter Selinger 2001-2017
</metadata>
<g transform="translate(0.000000,1024.000000) scale(0.100000,-0.100000)"
fill="#000000" stroke="none">
<path d="M2639 10236 c-2 -2 -85 -7 -184 -10 -99 -4 -202 -9 -230 -11 -108 -9
-201 -17 -230 -21 -16 -2 -52 -6 -80 -9 -110 -13 -317 -59 -432 -96 -219 -71
-464 -211 -663 -378 -120 -100 -279 -264 -345 -356 -11 -15 -29 -39 -41 -54
-137 -175 -290 -506 -333 -721 -6 -30 -14 -66 -16 -80 -3 -14 -8 -41 -11 -60
-3 -19 -7 -42 -9 -50 -2 -8 -7 -37 -10 -65 -3 -27 -8 -63 -10 -80 -4 -32 -14
-151 -20 -225 -17 -220 -20 -720 -20 -2890 0 -2190 4 -2721 20 -2910 13 -152
17 -188 25 -258 68 -556 268 -962 660 -1335 315 -300 691 -493 1080 -552 19
-3 60 -10 90 -15 30 -5 82 -12 115 -15 33 -3 85 -8 115 -11 277 -26 563 -29
3020 -29 2197 0 2705 3 2880 20 25 2 81 7 125 11 123 10 229 22 255 29 8 2 35
7 60 10 98 13 358 84 417 113 10 5 58 28 106 51 415 196 788 561 1008 986 81
156 157 387 184 565 4 25 9 53 11 63 5 31 22 161 22 177 0 8 3 42 6 75 28 277
31 549 31 3010 0 2140 -4 2717 -19 2895 -2 19 -6 71 -10 116 -4 44 -9 92 -11
105 -2 13 -6 51 -10 84 -3 33 -7 67 -10 75 -2 8 -6 32 -9 52 -3 21 -10 57 -15
80 -6 24 -12 54 -15 68 -61 280 -212 577 -424 830 -86 102 -226 241 -307 306
-27 21 -52 42 -55 45 -20 24 -247 165 -346 215 -211 107 -490 183 -764 209
-36 3 -81 8 -100 10 -19 2 -80 7 -135 11 -55 3 -129 8 -165 11 -73 6 -5195 14
-5201 9z"/>
</g>
</svg>
