<?xml version="1.0" standalone="no"?>
<!DOCTYPE svg PUBLIC "-//W3C//DTD SVG 20010904//EN"
 "http://www.w3.org/TR/2001/REC-SVG-20010904/DTD/svg10.dtd">
<svg version="1.0" xmlns="http://www.w3.org/2000/svg"
 width="1024.000000pt" height="1024.000000pt" viewBox="0 0 1024.000000 1024.000000"
 preserveAspectRatio="xMidYMid meet">
<metadata>
Created by potrace 1.14, written by Peter Selinger 2001-2017
</metadata>
<g transform="translate(0.000000,1024.000000) scale(0.100000,-0.100000)"
fill="#000000" stroke="none">
<path d="M2639 10236 c-2 -2 -85 -7 -184 -10 -99 -4 -202 -9 -230 -11 -106 -9
-201 -17 -230 -21 -16 -2 -52 -6 -80 -9 -110 -13 -317 -59 -432 -96 -219 -71
-464 -211 -663 -378 -120 -100 -279 -264 -345 -356 -11 -15 -29 -39 -41 -54
-137 -175 -290 -506 -333 -721 -6 -30 -14 -66 -16 -80 -3 -14 -8 -41 -11 -60
-3 -19 -7 -42 -9 -50 -2 -8 -7 -37 -10 -65 -3 -27 -8 -63 -10 -80 -4 -31 -14
-148 -20 -225 -16 -214 -20 -738 -20 -2900 0 -2215 3 -2701 20 -2900 23 -268
40 -395 75 -550 133 -594 570 -1134 1159 -1429 126 -64 376 -142 531 -166 19
-3 60 -10 90 -15 30 -5 82 -12 115 -15 33 -3 85 -8 115 -11 278 -26 552 -29
3005 -29 2210 0 2720 3 2895 20 25 2 81 7 125 11 88 7 102 8 190 19 33 4 62 9
65 10 3 2 29 6 59 10 95 12 323 74 411 111 484 207 889 583 1124 1044 79 154
154 387 181 560 4 25 9 52 10 60 14 79 22 153 40 370 17 207 20 693 20 2895 0
2140 -4 2717 -19 2895 -2 19 -6 71 -10 116 -4 44 -9 92 -11 105 -2 13 -6 51
-10 84 -3 33 -7 67 -10 75 -2 8 -6 32 -9 52 -19 128 -78 344 -122 444 -80 183
-200 377 -333 534 -85 102 -225 241 -306 306 -27 21 -52 42 -55 45 -16 18
-230 155 -310 198 -119 62 -216 101 -350 140 -154 44 -338 76 -545 95 -33 3
-100 8 -150 12 -49 4 -119 9 -155 11 -74 6 -5195 14 -5201 9z"/>
</g>
</svg>
